<svg xmlns="http://www.w3.org/2000/svg" width="82" height="119.275" viewBox="0 0 82 119.275">
  <path id="Icon_awesome-lightbulb" data-name="Icon awesome-lightbulb" d="M22.378,105.843a7.458,7.458,0,0,0,1.249,4.121l3.981,5.985a7.452,7.452,0,0,0,6.206,3.327H48.189a7.452,7.452,0,0,0,6.206-3.327l3.981-5.985a7.452,7.452,0,0,0,1.249-4.121l.009-8.934H22.366l.012,8.934ZM0,41A40.771,40.771,0,0,0,10.148,67.972C14,72.363,20.015,81.537,22.31,89.275c.009.061.016.121.026.182H59.664c.009-.061.016-.119.026-.182,2.295-7.739,8.314-16.912,12.163-21.3A40.992,40.992,0,1,0,0,41Z"/>
</svg>
