<?xml version="1.0" encoding="UTF-8" standalone="no"?>
<!-- Created with Inkscape (http://www.inkscape.org/) -->

<svg
   xmlns:dc="http://purl.org/dc/elements/1.1/"
   xmlns:cc="http://creativecommons.org/ns#"
   xmlns:rdf="http://www.w3.org/1999/02/22-rdf-syntax-ns#"
   xmlns:svg="http://www.w3.org/2000/svg"
   xmlns="http://www.w3.org/2000/svg"
   xmlns:sodipodi="http://sodipodi.sourceforge.net/DTD/sodipodi-0.dtd"
   xmlns:inkscape="http://www.inkscape.org/namespaces/inkscape"
   width="575.70984mm"
   height="572.87811mm"
   viewBox="0 0 575.70984 572.87811"
   version="1.1"
   id="svg8"
   inkscape:version="0.92.4 (5da689c313, 2019-01-14)"
   sodipodi:docname="iris.svg">
  <defs
     id="defs2" />
  <sodipodi:namedview
     id="base"
     pagecolor="#ffffff"
     bordercolor="#666666"
     borderopacity="1.0"
     inkscape:pageopacity="0.0"
     inkscape:pageshadow="2"
     inkscape:zoom="0.175"
     inkscape:cx="241.5129"
     inkscape:cy="878.12441"
     inkscape:document-units="mm"
     inkscape:current-layer="g4531"
     showgrid="false"
     inkscape:window-width="1920"
     inkscape:window-height="1017"
     inkscape:window-x="1912"
     inkscape:window-y="-8"
     inkscape:window-maximized="1" />
  <metadata
     id="metadata5">
    <rdf:RDF>
      <cc:Work
         rdf:about="">
        <dc:format>image/svg+xml</dc:format>
        <dc:type
           rdf:resource="http://purl.org/dc/dcmitype/StillImage" />
        <dc:title></dc:title>
      </cc:Work>
    </rdf:RDF>
  </metadata>
  <g
     inkscape:label="Layer 1"
     inkscape:groupmode="layer"
     id="layer1"
     transform="translate(205.94546,123.95302)">
    <g
       id="g4531"
       transform="translate(-5.1520935,-33.374748)">
      <path
         style="fill:#ffffff;fill-opacity:1;stroke-width:0.25400001"
         d="m 95.57054,482.19433 c -3.84175,-0.10437 -10.0711,-0.37338 -13.843,-0.59779 -12.836906,-0.76375 -14.958924,-0.98798 -18.288001,-1.93235 -0.9779,-0.2774 -3.11343,-0.66274 -4.745609,-0.85634 -3.316833,-0.3934 -4.719752,-0.97899 -5.545252,-2.3147 -0.267741,-0.4332 -0.772998,-0.94079 -1.122832,-1.12802 -1.175461,-0.6291 -2.017192,-2.18435 -2.128545,-3.93291 -0.130379,-2.04747 0.259994,-2.81858 2.55016,-5.0375 2.338603,-2.26589 2.940075,-2.56269 5.256987,-2.59395 1.591183,-0.0216 1.927631,-0.10275 2.159,-0.52141 0.97348,-1.76152 3.110459,-2.97719 5.989092,-3.40706 1.575206,-0.23523 5.650915,-1.75153 7.342936,-2.73184 0.615951,-0.35687 2.446884,-1.30884 4.068725,-2.11549 2.492019,-1.23947 3.144774,-1.69439 4.214063,-2.93706 2.224304,-2.5849 3.240609,-3.39971 5.837276,-4.67985 2.223618,-1.09623 2.714015,-1.46276 3.937,-2.94256 1.207465,-1.46101 2.698928,-2.97246 8.011973,-8.11926 0.564845,-0.54717 2.210077,-2.56647 3.656077,-4.48734 1.44602,-1.92088 2.71381,-3.4925 2.81732,-3.4925 0.1035,0 0.9715,-1.05728 1.92885,-2.3495 0.95737,-1.29223 2.09672,-2.74956 2.53189,-3.23851 0.69383,-0.77957 6.09186,-9.87427 8.13103,-13.69933 0.40472,-0.75918 1.26167,-1.95933 1.90434,-2.667 2.23388,-2.45982 4.89722,-7.36308 6.09544,-11.2219 0.26528,-0.85425 0.9527,-2.36571 1.52763,-3.35872 0.57493,-0.99304 1.54805,-3.31539 2.16248,-5.16075 0.61445,-1.84538 1.41211,-3.85854 1.77262,-4.4737 0.3605,-0.61514 1.60157,-3.8833 2.7579,-7.26254 1.63144,-4.76771 2.22895,-6.90967 2.66715,-9.56153 0.61438,-3.718 0.90386,-4.49511 2.17562,-5.84053 0.66205,-0.70038 1.1382,-1.77815 2.24437,-5.08 1.69804,-5.06859 2.8941,-9.01441 3.96514,-13.081 0.4415,-1.6764 1.41323,-5.27685 2.15935,-8.001 0.74613,-2.72415 1.43236,-5.81025 1.52492,-6.858 0.32166,-3.64101 1.35798,-9.04001 2.48651,-12.954 0.62435,-2.16535 1.27823,-4.7371 1.45311,-5.715 0.17485,-0.9779 0.80871,-3.89255 1.40858,-6.477 1.22966,-5.29801 1.45852,-6.57855 2.04262,-11.43 0.45765,-3.80098 0.78671,-4.83283 1.91203,-5.99562 0.80543,-0.83223 0.79865,-0.80068 2.04135,-9.49838 0.28872,-2.02075 0.91059,-3.53108 1.88249,-4.572 0.32611,-0.34925 0.99904,-1.4351 1.49543,-2.413 0.49637,-0.9779 1.30193,-2.31813 1.79011,-2.9783 0.84674,-1.14503 2.45131,-2.2287 3.3,-2.2287 0.21811,0 0.84922,-0.29954 1.40246,-0.66568 1.84079,-1.21816 4.27098,-1.13457 6.12823,0.21079 0.88971,0.64453 1.31966,0.7904 2.1745,0.73782 2.3338,-0.14351 3.09786,0.47346 16.95043,13.68707 3.03073,2.89093 6.80156,7.22973 10.1202,11.64453 1.64402,2.18707 3.40642,4.47528 3.91643,5.08495 6.94992,8.30796 16.39082,21.73217 20.03102,28.48252 2.02509,3.75532 5.07906,10.42576 6.16341,13.462 0.42408,1.18745 1.05459,2.8448 1.40112,3.683 0.34653,0.8382 1.10779,3.18135 1.69169,5.207 0.58389,2.02565 1.44683,4.826 1.91765,6.223 1.88008,5.5785 2.72819,10.67705 2.79471,16.80081 0.0291,2.67452 0.11509,4.96349 0.19116,5.0866 0.0761,0.12309 0.33419,1.64958 0.57361,3.3922 0.46738,3.4021 0.40548,8.31179 -0.15522,12.31239 -0.15664,1.1176 -0.44178,4.26085 -0.63363,6.985 -0.19185,2.72415 -0.52055,5.8674 -0.73048,6.985 -0.94419,5.02664 -1.19626,7.35846 -1.25052,11.56849 -0.0543,4.21401 -0.0925,4.52493 -0.70259,5.715 -0.35481,0.69217 -0.90627,2.34436 -1.22544,3.67151 -0.31916,1.32715 -0.7186,2.64161 -0.88761,2.92101 -0.16903,0.2794 -0.56113,1.36525 -0.8714,2.413 -0.31023,1.04775 -0.68582,2.2479 -0.83461,2.667 -0.1488,0.4191 -0.47366,1.45526 -0.7219,2.30261 -0.24826,0.84732 -0.69464,2.01744 -0.99197,2.60027 -0.52398,1.02708 -5.55541,6.25668 -7.29932,7.58683 -0.47351,0.36116 -1.27684,1.44818 -1.78522,2.41562 -1.73649,3.30456 -5.15391,5.83351 -12.1273,8.9744 -2.5271,1.13822 -7.28079,3.28094 -10.56374,4.76156 -3.28295,1.48062 -8.255,3.66238 -11.049,4.84833 -2.794,1.18597 -7.08025,3.03705 -9.525,4.11355 -6.62818,2.91854 -9.55797,3.74211 -15.367,4.3197 -1.97487,0.19635 -6.21774,1.00386 -9.271,1.76444 -5.7279,1.42685 -15.21622,3.05176 -19.304,3.30589 -1.46685,0.0912 -3.63855,0.33985 -4.826,0.55262 -1.18745,0.21275 -4.445,0.48443 -7.239,0.60371 -6.58487,0.28115 -8.90679,0.65761 -9.84494,1.59619 -1.07518,1.07566 -2.21643,1.43512 -4.56141,1.4367 -1.15699,0 -2.5037,0.10404 -2.99265,0.22949 -1.42499,0.36563 -6.71073,0.46113 -14.224,0.25702 z M -48.701463,443.8907 c -0.76835,-0.26195 -1.898726,-0.55131 -2.511958,-0.64298 -0.613233,-0.0917 -2.253082,-0.56281 -3.644088,-1.04699 -2.193645,-0.76357 -2.847035,-0.88033 -4.925873,-0.88033 -2.206244,0 -2.608503,-0.0831 -5.060874,-1.04499 -3.072206,-1.20505 -3.97228,-1.7605 -10.746156,-6.63168 -2.743428,-1.97282 -6.311366,-4.51914 -7.928737,-5.65849 -1.61737,-1.13937 -4.24627,-3.09189 -5.842,-4.33898 -1.595729,-1.24709 -4.158615,-3.17274 -5.695315,-4.27921 -10.937136,-7.87517 -14.017046,-10.60775 -16.790926,-14.89743 -0.79286,-1.22614 -3.14785,-3.96715 -6.96542,-8.10723 -5.39498,-5.85073 -9.35004,-10.63493 -11.9688,-14.478 -0.90435,-1.32715 -2.42145,-3.37464 -3.37133,-4.55 -1.85198,-2.29156 -3.54593,-4.82056 -4.55274,-6.79704 -0.34349,-0.67427 -1.50796,-2.31181 -2.58773,-3.63896 -1.55496,-1.91119 -2.16277,-2.47205 -2.92284,-2.69697 -1.54447,-0.45705 -2.39824,-1.23751 -3.36387,-3.07513 -0.49838,-0.94841 -1.21172,-2.00936 -1.5852,-2.35765 -1.67965,-1.56637 -7.18358,-11.36716 -14.19181,-25.27125 -4.87399,-9.66983 -6.4577,-13.19502 -7.01783,-15.621 -0.38909,-1.68513 -1.19677,-3.86806 -2.25552,-6.096 -0.86326,-1.81655 -1.00436,-3.30126 -0.44171,-4.64787 0.18879,-0.45186 0.42083,-1.33401 0.51562,-1.96034 0.41687,-2.75423 2.53335,-4.65354 5.18295,-4.65115 0.79814,0 1.79405,0.17595 2.21315,0.38938 0.4191,0.21346 1.17045,0.4619 1.66966,0.55212 1.64145,0.29667 3.15104,1.48019 3.89565,3.05415 0.57341,1.21211 0.77446,1.42192 1.36364,1.42313 1.95519,0.004 4.9176,1.70879 5.91917,3.40635 0.46847,0.79398 4.65152,4.35577 5.85406,4.98462 0.331,0.17308 1.883,1.157 3.44888,2.18646 3.30994,2.17609 3.28451,2.16494 6.48168,2.84282 2.59339,0.54983 3.91629,1.1096 5.81746,2.46154 1.78869,1.27195 2.43916,1.53799 4.91981,2.01216 1.2573,0.24033 4.28625,1.01661 6.731,1.72504 2.44475,0.70846 5.53085,1.44501 6.858,1.63683 2.56181,0.37023 6.16836,0.91933 8.89,1.35349 5.98007,0.95392 6.866124,1.01295 15.239996,1.01511 6.697091,0.003 8.806485,0.082 9.906,0.37716 1.831442,0.49159 6.395263,0.48916 9.68624,-0.005 1.414018,-0.21237 2.67401,-0.44986 2.80002,-0.52773 0.126009,-0.0779 1.568678,-0.19721 3.205912,-0.2652 1.641957,-0.0682 4.342358,-0.40104 6.021959,-0.74227 1.674825,-0.34026 3.629152,-0.61864 4.342943,-0.61864 1.153515,0 7.509916,-1.11727 12.423927,-2.18377 0.9779,-0.21221 3.114091,-0.88707 4.747083,-1.49964 3.737686,-1.4021 4.504207,-1.5434 6.185458,-1.14005 1.256107,0.30132 1.682522,0.2571 6.130722,-0.63597 7.591654,-1.52412 25.2874536,-6.10969 27.0496548,-7.00943 2.4029416,-1.2269 9.1665812,-3.62042 12.5290832,-4.4338 1.955801,-0.47307 4.584701,-1.21684 5.842001,-1.6528 1.2573,-0.43594 3.60045,-1.18339 5.207,-1.66101 5.102758,-1.51702 7.639913,-2.41729 11.847855,-4.20416 4.215638,-1.79011 5.302708,-2.02291 6.879514,-1.47322 0.657022,0.22903 1.11633,0.13484 3.149423,-0.64572 1.309116,-0.50262 3.237458,-1.29426 4.285208,-1.75921 2.991892,-1.32765 3.67538,-1.48808 5.674691,-1.33182 1.000074,0.0782 3.1528,0.14254 4.783836,0.14303 3.355695,0 4.268952,0.26342 5.832373,1.67589 0.540411,0.48821 1.092556,0.88768 1.226998,0.88768 0.480949,0 2.0796,1.62166 2.595423,2.63278 0.435737,0.85408 0.500812,1.32332 0.381305,2.74897 -0.09017,1.07556 -0.04486,1.78046 0.121056,1.883 0.456895,0.28238 1.216914,2.22136 1.222731,3.11951 0.003,0.47259 -0.331699,2.30139 -0.743966,4.064 -0.412242,1.7626 -0.882879,3.89054 -1.045871,4.72874 -0.162991,0.8382 -0.579424,2.60985 -0.925398,3.937 -0.345999,1.32715 -0.800202,3.21213 -1.009345,4.18884 -0.654279,3.05537 -1.506169,5.95917 -2.944013,10.03516 -1.35796,3.84947 -4.0561,10.49823 -4.477588,11.03366 -0.116611,0.14813 -0.356057,0.72654 -0.532104,1.28534 -2.206219,7.00293 -10.649256,25.28867 -14.65829,31.7466 -2.176577,3.50611 -6.826987,10.0777 -8.344611,11.79195 -0.567487,0.64099 -1.457071,1.73695 -1.976882,2.43545 -1.155421,1.55263 -8.627619,9.62891 -11.592688,12.52992 -2.986862,2.9223 -6.94784,6.0638 -9.525102,7.55447 -3.757676,2.1734 -4.596587,2.73139 -6.846265,4.55361 -1.207313,0.9779 -3.0190947,2.28417 -4.0262047,2.90284 -1.9905981,1.22281 -7.2858886,3.90235 -8.30808622,4.20408 -0.34924998,0.10307 -2.57810008,1.1573 -4.95300008,2.34269 -2.3749001,1.18537 -5.06095,2.41961 -5.969,2.7427 -5.283149,1.87982 -6.817513,2.49341 -9.129878,3.65102 -1.408811,0.70528 -3.048178,1.61719 -3.64302,2.02646 -1.592022,1.09532 -2.887295,1.57683 -4.880103,1.81407 -0.9779,0.11643 -2.570607,0.44869 -3.539363,0.73833 -0.96873,0.28963 -2.372893,0.59268 -3.120364,0.67338 -0.747472,0.0807 -1.955115,0.31155 -2.683663,0.51297 -0.728523,0.20145 -1.9098,0.47128 -2.625014,0.59965 -0.715213,0.12837 -1.743913,0.34701 -2.286,0.48585 -2.110079,0.54046 -3.483864,0.55979 -4.922596,0.0693 z M 307.21765,365.98305 c -1.18776,-0.60053 -2.54122,-2.2037 -2.80693,-3.32475 -0.12604,-0.5318 -0.36081,-1.51148 -0.52167,-2.17706 -0.61831,-2.55806 -0.27244,-4.51755 1.05331,-5.9673 0.51517,-0.56335 0.51623,-0.59022 0.0605,-1.524 -0.25515,-0.52281 -0.54524,-1.37341 -0.64466,-1.89025 -0.22331,-1.16088 0.13015,-3.5452 0.68382,-4.61269 0.70292,-1.35521 1.105,-4.12711 1.44206,-9.94161 0.35474,-6.11916 0.44496,-5.2786 -1.13129,-10.541 -0.41935,-1.40007 -0.46906,-2.08282 -0.32707,-4.49239 0.16456,-2.79271 0.15176,-2.88842 -0.74816,-5.588 -0.90437,-2.71285 -2.16863,-7.37324 -2.67955,-9.87748 -0.24747,-1.21295 -0.7447,-2.52527 -2.92814,-7.72813 -0.49832,-1.18745 -0.90812,-2.36283 -0.91069,-2.61193 -0.003,-0.24912 -0.30287,-1.04145 -0.66733,-1.76073 -0.36449,-0.71928 -1.03838,-2.34559 -1.49756,-3.61406 -0.53404,-1.47529 -2.14145,-4.54752 -4.46108,-8.5263 -4.71721,-8.09132 -4.96463,-8.55188 -5.32021,-9.90298 -0.32303,-1.22743 -1.46603,-3.44393 -3.14335,-6.09564 -1.16662,-1.84435 -1.54856,-2.33899 -3.22808,-4.18064 -0.6424,-0.70439 -1.59698,-2.02367 -2.12129,-2.93172 -1.05806,-1.83246 -2.03179,-3.08856 -4.4056,-5.6832 -0.87937,-0.96116 -1.82692,-2.19458 -2.10561,-2.74089 -0.27871,-0.54633 -1.38803,-1.99948 -2.46515,-3.22925 -1.07711,-1.22977 -2.97365,-3.40622 -4.21454,-4.83654 -1.24087,-1.43035 -3.4941,-3.62527 -5.00718,-4.87759 -3.08986,-2.55737 -3.58643,-3.14797 -4.08528,-4.85874 -0.26894,-0.92238 -1.05134,-2.00464 -3.3905,-4.69001 -4.46153,-5.12186 -17.95932,-18.74362 -20.1547,-20.33984 -3.35462,-2.43906 -7.51408,-6.04644 -9.95748,-8.63584 -1.31598,-1.39462 -3.30711,-3.31989 -4.42471,-4.27838 -1.1176,-0.9585 -3.175,-2.83581 -4.572,-4.17182 -3.33413,-3.18854 -5.1928,-4.76342 -8.93643,-7.57192 -3.48516,-2.61458 -4.0484,-3.22113 -4.47606,-4.82011 -0.26175,-0.97866 -0.59759,-1.36108 -2.58814,-2.94729 -1.25806,-1.00249 -2.68742,-2.09349 -3.17637,-2.42443 -2.3134,-1.56581 -4.01066,-3.52211 -4.60266,-5.30519 -0.15704,-0.47303 -0.56822,-1.27313 -0.91371,-1.778 -1.3892,-2.03 -2.43436,-4.44986 -2.42603,-5.61696 0.0173,-2.42783 0.40803,-5.24622 0.84839,-6.12005 0.59253,-1.17585 2.01404,-2.41981 3.01693,-2.64008 0.56932,-0.12504 0.92126,-0.43665 1.27389,-1.12786 0.83815,-1.64287 2.03817,-2.46075 4.8961,-3.3369 1.43335,-0.43942 3.53322,-1.12182 4.66636,-1.51646 1.13315,-0.39464 3.19055,-1.02507 4.572,-1.40096 1.38146,-0.37587 3.71188,-1.07307 5.17873,-1.54932 3.54269,-1.15027 11.48865,-2.71305 17.145,-3.37206 2.5146,-0.29294 5.1435,-0.64252 5.842,-0.77683 4.4735,-0.8601 11.95365,-1.748 21.59,-2.56273 5.09768,-0.43102 7.52719,-0.51032 12.319,-0.40216 5.6291,0.12705 11.87933,0.63391 14.5126,1.17683 0.64767,0.13355 2.38801,0.42255 3.86743,0.64221 1.4794,0.21969 4.4928,0.84135 6.6964,1.38154 2.20361,0.54015 4.97812,1.17472 6.16557,1.41015 5.09291,1.00975 12.22279,3.77653 16.19225,6.28345 0.87699,0.55388 3.34782,1.71956 5.49077,2.59045 4.41373,1.7937 7.85708,3.75712 12.09899,6.89884 1.60655,1.18987 3.3782,2.46169 3.937,2.82629 3.87662,2.5292 6.07524,4.09135 7.62,5.41408 2.54182,2.1765 5.88373,4.81757 6.09594,4.81757 0.0995,0 0.59744,0.32829 1.10651,0.72954 0.50904,0.40124 1.74873,1.14287 2.75485,1.64805 2.03338,1.02098 3.47726,2.175 4.0098,3.2048 0.19368,0.37454 1.30226,1.65216 2.46352,2.83918 6.96367,7.11815 10.11238,11.13412 10.11238,12.89759 0,0.38544 0.17914,1.05989 0.39809,1.4988 0.21897,0.43891 0.68892,2.19954 1.04437,3.91252 0.52502,2.53024 0.83206,3.41198 1.63663,4.70012 0.5447,0.87208 1.16672,2.24368 1.38226,3.048 0.62853,2.34541 0.74895,7.51017 0.27689,11.8764 -0.22654,2.0955 -0.52454,5.0673 -0.66218,6.604 -0.57914,6.46514 -1.05184,10.95804 -1.39692,13.27737 -0.20219,1.35885 -0.77752,6.20573 -1.27851,10.77082 -0.50099,4.56511 -1.06467,8.90851 -1.25263,9.652 -0.18796,0.74351 -0.42283,1.80901 -0.52194,2.36781 -0.19269,1.08646 -1.6444,4.95656 -2.4559,6.54726 -0.55852,1.09479 -2.44402,6.47392 -3.26957,9.32774 -1.32085,4.56601 -4.74761,13.88606 -6.35053,17.272 -0.95893,2.02565 -2.13695,4.71681 -2.6178,5.98033 -0.98042,2.57622 -2.10327,4.89814 -3.37241,6.97367 -0.46985,0.76835 -1.36977,2.68943 -1.99987,4.26908 -1.05125,2.63551 -1.12509,2.96355 -0.89664,3.98298 0.37157,1.65808 -0.0712,3.34297 -1.28961,4.90682 -0.25106,0.32222 -0.65093,1.17947 -0.88862,1.905 -0.2377,0.72552 -0.83084,2.11922 -1.31808,3.09712 -1.11722,2.24226 -7.55165,12.90701 -10.42046,17.27144 -10.40795,15.83398 -10.43757,15.876 -13.16248,18.66956 -1.02202,1.04775 -2.63375,2.92961 -3.58165,4.18194 -1.88219,2.48666 -2.93884,3.35153 -4.35534,3.56489 -0.50826,0.0765 -1.26701,0.26997 -1.68611,0.42984 -1.29164,0.49266 -3.7087,0.51979 -4.63389,0.052 z M 91.25254,270.76948 c -1.18745,-0.19066 -3.13055,-0.35863 -4.318,-0.37328 -1.18745,-0.0147 -3.206877,-0.13704 -4.487621,-0.27199 -1.898193,-0.2 -2.495271,-0.17571 -3.230347,0.13142 -1.305357,0.54542 -2.930601,0.46419 -4.903394,-0.24508 -0.951306,-0.34204 -2.509977,-0.74569 -3.463747,-0.89703 -0.95377,-0.15133 -2.21107,-0.45209 -2.794,-0.66837 -0.58293,-0.21628 -1.974291,-0.59292 -3.091891,-0.83698 -3.12608,-0.68263 -4.505046,-1.19398 -8.763001,-3.2495 -2.16535,-1.04531 -4.428058,-2.06794 -5.028235,-2.27249 -3.294964,-1.12296 -6.489751,-3.24038 -7.276643,-4.82277 -0.422478,-0.84961 -0.982649,-1.33142 -2.935122,-2.52459 -3.039923,-1.85768 -8.433156,-6.04789 -10.401732,-8.08151 -2.663774,-2.75179 -4.280205,-5.17213 -5.872099,-8.79254 -0.583133,-1.32627 -1.960702,-4.24513 -3.061208,-6.48635 -1.100531,-2.24125 -2.000961,-4.18828 -2.000961,-4.32674 0,-0.13848 -0.347269,-0.45689 -0.771678,-0.70762 -1.208202,-0.71369 -1.965655,-2.11282 -2.496388,-4.61114 -0.266573,-1.25484 -0.783311,-3.12115 -1.148309,-4.14736 -0.364998,-1.02621 -0.663626,-2.15537 -0.663626,-2.50927 0,-0.3539 -0.278231,-1.41473 -0.618261,-2.35742 -0.943915,-2.61676 -1.404137,-5.24965 -1.680134,-9.61235 -0.138328,-2.18633 -0.42385,-4.89789 -0.634492,-6.0257 -0.537565,-2.87797 -0.211226,-6.45134 0.736854,-8.06917 0.602691,-1.0284 0.672262,-1.40414 0.674142,-3.6415 0.0025,-2.30172 0.265176,-4.83575 1.011148,-9.73376 0.690575,-4.53443 2.654351,-9.06676 5.722773,-13.208 0.983361,-1.32715 2.288616,-3.2131 2.900604,-4.191 0.612013,-0.9779 1.723059,-2.60556 2.469032,-3.61704 0.783387,-1.0622 1.356335,-2.10617 1.356335,-2.47137 0,-1.33022 0.827481,-2.67015 2.880334,-4.6641 1.139978,-1.10723 2.716505,-2.68419 3.503422,-3.50433 0.786918,-0.82014 1.615872,-1.66261 1.842135,-1.87216 0.226264,-0.20955 1.354074,-1.35778 2.506244,-2.55161 1.471295,-1.52451 3.115056,-2.84764 5.522138,-4.445 1.884985,-1.25092 4.228135,-2.94307 5.207,-3.76032 2.558821,-2.13642 5.415382,-3.53034 7.427138,-3.6243 1.356919,-0.0634 1.920088,-0.2603 3.937,-1.3767 1.294486,-0.71654 2.867939,-1.50856 3.496589,-1.76007 0.62865,-0.25149 2.457451,-0.98458 4.064001,-1.62911 5.418963,-2.17393 10.427741,-2.83946 15.737789,-2.0911 1.600937,0.2256 3.772637,0.41219 4.826,0.4146 1.053364,0.003 2.963088,0.11484 4.243832,0.24979 1.898193,0.2 2.495271,0.17571 3.230347,-0.13142 1.305357,-0.54542 2.930601,-0.46419 4.903394,0.24508 0.951308,0.34204 2.509978,0.74569 3.463748,0.89703 0.95377,0.15133 2.21107,0.45209 2.794,0.66837 0.58293,0.21628 1.97429,0.59292 3.09189,0.83698 3.12608,0.68263 4.50505,1.19398 8.763,3.2495 2.16535,1.04531 4.42806,2.06794 5.02824,2.27249 3.29496,1.12296 6.48975,3.24038 7.27664,4.82277 0.42248,0.84961 0.98265,1.33142 2.93512,2.52459 3.03992,1.85768 8.43316,6.04789 10.40173,8.08151 2.66378,2.75179 4.28021,5.17213 5.8721,8.79254 0.58314,1.32627 1.9607,4.24513 3.06121,6.48635 1.10053,2.24125 2.00096,4.18828 2.00096,4.32674 0,0.13848 0.34727,0.45689 0.77168,0.70762 1.2082,0.71369 1.96565,2.11282 2.49639,4.61114 0.26657,1.25484 0.78331,3.12115 1.14831,4.14736 0.36499,1.02621 0.66362,2.15537 0.66362,2.50927 0,0.3539 0.27823,1.41473 0.61826,2.35742 0.94392,2.61676 1.40414,5.24965 1.68014,9.61235 0.13833,2.18633 0.42385,4.89789 0.63449,6.0257 0.53756,2.87797 0.21123,6.45134 -0.73686,8.06917 -0.60269,1.0284 -0.67226,1.40414 -0.67414,3.6415 -0.003,2.30172 -0.26517,4.83575 -1.01115,9.73376 -0.69057,4.53443 -2.65435,9.06676 -5.72277,13.208 -0.98336,1.32715 -2.28861,3.2131 -2.9006,4.191 -0.61201,0.9779 -1.72306,2.60556 -2.46903,3.61704 -0.78339,1.0622 -1.35634,2.10617 -1.35634,2.47137 0,1.33022 -0.82748,2.67015 -2.88033,4.6641 -1.13998,1.10723 -2.71651,2.68419 -3.50343,3.50433 -0.78691,0.82014 -1.61587,1.66261 -1.84213,1.87216 -0.22626,0.20955 -1.35407,1.35778 -2.50624,2.55161 -1.4713,1.52451 -3.11506,2.84764 -5.52214,4.445 -1.88499,1.25092 -4.22814,2.94307 -5.207,3.76032 -2.55882,2.13642 -5.41538,3.53034 -7.42714,3.6243 -1.35692,0.0634 -1.92009,0.2603 -3.937,1.3767 -1.29449,0.71654 -2.86794,1.50856 -3.49659,1.76007 -0.62865,0.25149 -2.45745,0.98458 -4.064,1.62911 -1.60655,0.6445 -4.00685,1.41069 -5.334,1.70266 -3.06042,0.67328 -7.761427,0.83604 -10.668,0.36932 z M -97.088464,256.49084 c -3.993416,-0.33866 -9.312046,-0.91547 -10.159996,-1.1019 -0.5588,-0.12286 -2.24199,-0.40521 -3.74043,-0.62748 -1.49845,-0.22225 -4.5274,-0.84605 -6.731,-1.38624 -2.20362,-0.54015 -4.97812,-1.17472 -6.16557,-1.41015 -5.09292,-1.00975 -12.22278,-3.77653 -16.19224,-6.28345 -0.87698,-0.55388 -3.34783,-1.71956 -5.49077,-2.59045 -4.41373,-1.7937 -7.85708,-3.75712 -12.099,-6.89884 -1.60655,-1.18987 -3.3782,-2.46169 -3.937,-2.82629 -3.87662,-2.5292 -6.07524,-4.09135 -7.62,-5.41408 -2.54182,-2.1765 -5.88373,-4.81757 -6.09594,-4.81757 -0.0995,0 -0.59745,-0.32829 -1.10651,-0.72954 -0.50905,-0.40124 -1.74873,-1.14287 -2.75485,-1.64805 -2.03337,-1.02098 -3.47726,-2.175 -4.00979,-3.2048 -0.19368,-0.37454 -1.30227,-1.65216 -2.46353,-2.83918 -6.96365,-7.11815 -10.11238,-11.13412 -10.11238,-12.89759 0,-0.38544 -0.17914,-1.05989 -0.3981,-1.4988 -0.21895,-0.43891 -0.68891,-2.19954 -1.04436,-3.91252 -0.52502,-2.53024 -0.83206,-3.41198 -1.63663,-4.70012 -0.54471,-0.87208 -1.16673,-2.24368 -1.38227,-3.048 -0.62852,-2.34541 -0.74893,-7.51017 -0.27688,-11.8764 0.22655,-2.0955 0.52453,-5.0673 0.66219,-6.604 0.57912,-6.46514 1.05183,-10.95804 1.39692,-13.27737 0.20218,-1.35885 0.7775,-6.20573 1.2785,-10.77082 0.50099,-4.56511 1.06468,-8.90851 1.25263,-9.652 0.18796,-0.74351 0.42283,-1.80901 0.52194,-2.36781 0.1927,-1.08646 1.64439,-4.95656 2.4559,-6.54726 0.55852,-1.09479 2.44402,-6.47392 3.26957,-9.32774 1.32085,-4.56601 4.74761,-13.88605 6.35052,-17.272 0.95894,-2.025652 2.13696,-4.716808 2.61781,-5.980331 0.98042,-2.57622 2.10328,-4.898136 3.37242,-6.973671 0.46983,-0.76835 1.36976,-2.689429 1.99985,-4.26908 1.05126,-2.635504 1.12511,-2.963545 0.89665,-3.982974 -0.37158,-1.658087 0.0712,-3.34297 1.28962,-4.906823 0.25104,-0.322224 0.65092,-1.179474 0.88862,-1.905 0.23769,-0.725526 0.83082,-2.119224 1.31807,-3.097124 1.11723,-2.242261 7.55166,-12.90701 10.42046,-17.271441 10.40795,-15.83398 10.43757,-15.875991 13.16249,-18.66956 1.022,-1.04775 2.63373,-2.92961 3.58163,-4.181932 1.8822,-2.48666 2.93886,-3.35153 4.35534,-3.56489 0.50826,-0.07656 1.26702,-0.276174 1.68612,-0.443611 0.4191,-0.167462 1.5803,-0.307619 2.58045,-0.311506 1.65496,-0.0063 1.9047,0.06276 2.77757,0.769646 0.52751,0.427177 1.18477,1.078967 1.46059,1.448384 0.59038,0.790753 1.17957,3.192856 1.36052,5.546801 0.13686,1.780439 -0.18627,2.792502 -1.26996,3.977564 -0.51515,0.563347 -0.51622,0.59022 -0.0605,1.524 0.25514,0.522809 0.54524,1.373404 0.64466,1.890243 0.22332,1.160882 -0.13015,3.545205 -0.68383,4.612691 -0.70291,1.355217 -1.10499,4.127119 -1.44206,9.941611 -0.35474,6.119165 -0.44495,5.278603 1.1313,10.541 0.41936,1.400074 0.46907,2.082826 0.32707,4.492397 -0.16457,2.792704 -0.15176,2.888412 0.74817,5.588 0.90435,2.712847 2.16861,7.373239 2.67954,9.877476 0.24748,1.212951 0.74471,2.525268 2.92814,7.728128 0.49832,1.18745 0.90813,2.362835 0.91069,2.611933 0.003,0.249123 0.30286,1.04145 0.66734,1.760728 0.36448,0.719277 1.03838,2.345591 1.49754,3.614061 0.53403,1.47529 2.14147,4.54752 4.46108,8.5263 4.71722,8.09132 4.96464,8.55188 5.32022,9.90298 0.32303,1.22743 1.46603,3.44393 3.14335,6.09564 1.16662,1.84435 1.54856,2.33899 3.22808,4.18064 0.6424,0.70439 1.59698,2.02367 2.12129,2.93172 1.05806,1.83246 2.03179,3.08856 4.4056,5.6832 0.879373,0.96116 1.82692,2.19458 2.105609,2.74089 0.278714,0.54633 1.388034,1.99948 2.465146,3.22925 1.077113,1.22977 2.973655,3.40622 4.214546,4.83654 1.240866,1.43035 3.4941,3.62527 5.007178,4.87759 3.08986,2.55737 3.58643,3.14797 4.085286,4.85874 0.268935,0.92238 1.051331,2.00464 3.390493,4.69001 4.461536,5.12186 17.959325,18.74362 20.154698,20.33984 3.354629,2.43906 7.514082,6.04644 9.957486,8.63584 1.315974,1.39462 3.307105,3.31989 4.424705,4.27838 1.1176,0.9585 3.175,2.83581 4.572,4.17182 3.334131,3.18854 5.192802,4.76342 8.936432,7.57192 3.485159,2.61458 4.048404,3.22113 4.476064,4.82011 0.261747,0.97866 0.597586,1.36108 2.588133,2.94729 1.258062,1.00249 2.687422,2.09349 3.176372,2.42443 2.313406,1.56581 4.01066,3.52211 4.602658,5.30519 0.157048,0.47303 0.568223,1.27313 0.913714,1.778 1.389202,2.03 2.434361,4.44986 2.42603,5.61696 -0.01727,2.42783 -0.408026,5.24622 -0.848385,6.12005 -0.592532,1.17585 -2.014043,2.41981 -3.016936,2.64008 -0.569316,0.12504 -0.921258,0.43665 -1.273886,1.12786 -0.83815,1.64287 -2.038173,2.46075 -4.896105,3.3369 -1.433347,0.43942 -3.533216,1.12182 -4.666361,1.51646 -1.133144,0.39464 -3.190545,1.02507 -4.572,1.40096 -1.381455,0.37587 -3.71188,1.07307 -5.17873,1.54932 -3.54269,1.15027 -11.488649,2.71305 -17.145,3.37206 -2.5146,0.29294 -5.1435,0.64252 -5.842,0.77683 -7.869733,1.51308 -24.740058,3.0765 -32.466789,3.00878 -2.679167,-0.0234 -5.328412,-0.0815 -5.887212,-0.12885 z M -1.1958673,130.66333 c -0.3450844,-0.14516 -1.0231374,-0.56579 -1.5068297,-0.9347 -0.6854444,-0.52281 -1.1180826,-0.65608 -1.9615912,-0.60421 -2.3531323,0.1447 -3.0945583,-0.45334 -16.9671238,-13.68603 -3.030728,-2.89093 -6.801562,-7.22973 -10.120199,-11.64453 -1.644015,-2.18707 -3.406419,-4.475277 -3.916426,-5.084954 -6.949923,-8.307959 -16.390823,-21.732164 -20.031025,-28.482519 -2.025091,-3.755314 -5.07906,-10.42576 -6.163411,-13.462 -0.424079,-1.18745 -1.054583,-2.8448 -1.401115,-3.683 -0.346532,-0.8382 -1.107796,-3.18135 -1.691691,-5.207 -0.583895,-2.02565 -1.446835,-4.826 -1.917649,-6.223 -1.880083,-5.578501 -2.728189,-10.677043 -2.794711,-16.800805 -0.02906,-2.674519 -0.115088,-4.963491 -0.191161,-5.086604 -0.07607,-0.123089 -0.334188,-1.649578 -0.573608,-3.392196 -0.467385,-3.402101 -0.405486,-8.3117945 0.155219,-12.3123962 0.156642,-1.1176 0.441783,-4.26085008 0.633629,-6.9850001 0.191846,-2.7241501 0.520547,-5.8674002 0.730478,-6.9850002 0.944195,-5.0266425 1.196264,-7.3584565 1.250519,-11.5684705 0.05433,-4.214033 0.09256,-4.524937 0.702589,-5.715001 0.354813,-0.69219 0.906272,-2.344379 1.225448,-3.671529 0.319151,-1.32715 0.718592,-2.6416 0.887603,-2.921 0.169037,-0.2794 0.561137,-1.36525 0.871398,-2.413 0.310236,-1.04775 0.685826,-2.2479 0.834619,-2.667 0.148793,-0.4191 0.473659,-1.45527 0.721893,-2.302602 0.24826,-0.847328 0.69464,-2.017456 0.991972,-2.600281 0.523977,-1.027075 5.555412,-6.256694 7.299325,-7.586841 0.473507,-0.361152 1.276833,-1.448178 1.785214,-2.415611 1.736496,-3.30455 5.153914,-5.833501 12.127306,-8.974394 2.527097,-1.13824 7.280783,-3.280946 10.563733,-4.761571 3.282951,-1.480622 8.255001,-3.662373 11.049001,-4.848334 2.794,-1.185962 7.08025,-3.037053 9.5249999,-4.113535 6.6281809,-2.918547 9.55796941,-3.742119 15.3670003,-4.319705 1.9748755,-0.19636 6.2177428,-1.003851 9.2709998,-1.764434 5.727904,-1.426852 15.216226,-3.051764 19.304001,-3.305888 1.46685,-0.09119 3.63855,-0.33987 4.826,-0.552626 1.18745,-0.212753 4.445,-0.484429 7.239,-0.603722 6.584874,-0.281148 8.90679,-0.657601 9.844939,-1.596169 1.076325,-1.0768 2.216023,-1.435288 4.563084,-1.435288 1.157936,0 2.504618,-0.122901 2.992654,-0.273114 1.435735,-0.441906 15.411933,-0.292328 25.652324,0.274544 15.01122,0.830968 17.19519,1.046269 20.701,2.04077 0.9779,0.277401 3.11343,0.662755 4.74561,0.856341 3.31683,0.393395 4.71975,0.979003 5.54525,2.314717 0.26774,0.433185 0.773,0.940789 1.12283,1.128012 1.17547,0.629097 2.0172,2.184354 2.12855,3.932895 0.13038,2.047487 -0.25999,2.8186 -2.55016,5.037524 -2.3386,2.265871 -2.94008,2.562659 -5.25699,2.59395 -1.59118,0.02149 -1.92763,0.102743 -2.159,0.521408 -0.97348,1.761516 -3.11046,2.977183 -5.98909,3.407045 -1.57521,0.235219 -5.65092,1.751543 -7.34294,2.731854 -0.61595,0.356872 -2.44688,1.308841 -4.068721,2.115487 -2.492019,1.239454 -3.144774,1.694388 -4.214063,2.93704 -2.224304,2.58492 -3.240609,3.399716 -5.837276,4.679866 -2.223618,1.096241 -2.714015,1.462766 -3.937,2.942562 -1.207465,1.461006 -2.698928,2.972453 -8.011973,8.119258 -0.564845,0.547162 -2.21008,2.566467 -3.656076,4.487342 -1.446022,1.920875 -2.713812,3.4925 -2.817317,3.4925 -0.103505,0 -0.9715,1.057275 -1.928851,2.3495 -0.957377,1.292225 -2.096719,2.74955 -2.531898,3.2385 -0.693826,0.779577 -6.091859,9.874286 -8.131022,13.699335 -0.404724,0.759184 -1.261669,1.959334 -1.90434,2.667 -2.233879,2.45981 -4.897222,7.3630822 -6.095441,11.221901 -0.265278,0.8542529 -0.952703,2.3657053 -1.527632,3.35871832 -0.57493,0.99303842 -1.548054,3.31538588 -2.16248,5.16074668 -0.614452,1.8453863 -1.412113,3.8585395 -1.772616,4.4737021 -0.360502,0.6151369 -1.601571,3.8833049 -2.757906,7.2625459 -1.631442,4.767707 -2.228952,6.909664 -2.667153,9.561525 -0.614375,3.718002 -0.903859,4.495115 -2.175611,5.840527 -0.662051,0.70038 -1.1382,1.778153 -2.24437,5.080001 -1.698041,5.068595 -2.894101,9.014409 -3.965143,13.081 -0.441503,1.6764 -1.413231,5.27685 -2.159356,8.001 -0.746125,2.72415 -1.432357,5.81025 -1.524914,6.858 -0.321666,3.641014 -1.357986,9.040013 -2.486508,12.954 -0.624357,2.16535 -1.278229,4.737101 -1.453108,5.715001 -0.174854,0.9779 -0.808711,3.89255 -1.408583,6.477 -1.229665,5.298008 -1.458519,6.578549 -2.042617,11.430002 -0.457657,3.80098 -0.786714,4.83283 -1.912036,5.99562 -0.805434,0.83223 -0.798652,0.80068 -2.041347,9.49838 -0.288722,2.02075 -0.91059,3.53108 -1.882496,4.572 -0.32611,0.34925 -0.999033,1.4351 -1.495425,2.413 -0.4963667,0.9779 -1.3019277,2.31813 -1.7901157,2.9783 -0.8467344,1.14503 -2.4513033,2.2287 -3.2999935,2.2287 -0.2181098,0 -0.8646414,0.30975 -1.4367256,0.68834 -0.7945882,0.52583 -1.4079729,0.70513 -2.59806448,0.75943 -0.85684362,0.0391 -1.84023004,-0.0477 -2.18528902,-0.19283 z M 113.02809,93.441251 c -0.0842,-0.08423 -1.58242,-0.137007 -3.32933,-0.117322 -3.5908,0.04049 -4.43197,-0.187503 -6.03512,-1.635862 -0.54041,-0.488213 -1.09255,-0.887679 -1.227,-0.887679 -0.48095,0 -2.0796,-1.621663 -2.59542,-2.632787 -0.435737,-0.854075 -0.500812,-1.323314 -0.381305,-2.748965 0.09017,-1.075563 0.04486,-1.780464 -0.121056,-1.883004 -0.456895,-0.282372 -1.216914,-2.221357 -1.222731,-3.119501 -0.003,-0.472593 0.331699,-2.301393 0.743966,-4.064 0.412242,-1.762608 0.882879,-3.890544 1.045871,-4.728744 0.162995,-0.8382 0.579425,-2.60985 0.925395,-3.937 0.346,-1.32715 0.8002,-3.212135 1.00935,-4.188841 0.65428,-3.055366 1.50617,-5.95917 2.94401,-10.035159 1.35796,-3.849472 4.0561,-10.498227 4.47759,-11.033659 0.11661,-0.148133 0.35606,-0.726541 0.5321,-1.285341 2.20622,-7.002933 10.64926,-25.288673 14.65829,-31.7465975 2.17658,-3.5061145 6.82699,-10.0777042 8.34461,-11.7919502 0.56749,-0.6409944 1.45708,-1.7369537 1.97689,-2.4354537 1.15542,-1.5526258 8.62761,-9.6289196 11.59268,-12.5299096 2.98687,-2.9223 6.94784,-6.06381 9.52511,-7.554473 3.75767,-2.173419 4.59658,-2.731389 6.84626,-4.553618 1.20731,-0.9779 3.0191,-2.284174 4.02621,-2.902831 1.99059,-1.222822 7.28588,-3.90236 8.30808,-4.204084 0.34925,-0.103091 2.5781,-1.157298 4.953,-2.342685 2.3749,-1.185388 5.06095,-2.419604 5.969,-2.742705 5.28315,-1.879831 6.81751,-2.493422 9.12988,-3.651032 1.40881,-0.705284 3.04818,-1.617185 3.64302,-2.026447 1.59202,-1.095337 2.88729,-1.576825 4.8801,-1.814084 0.9779,-0.116428 2.57061,-0.448668 3.53937,-0.738317 0.96873,-0.289646 2.37289,-0.59267 3.12036,-0.673387 0.74747,-0.08072 1.95511,-0.311556 2.68366,-0.512981 0.72853,-0.201427 1.9098,-0.471261 2.62502,-0.599633 0.71521,-0.128374 1.74391,-0.345681 2.286,-0.482904 2.22913,-0.564287 3.31472,-0.583304 4.83268,-0.08466 0.8178,0.268651 1.98864,0.563525 2.60187,0.655275 0.61323,0.09175 2.25308,0.562968 3.64409,1.047148 2.19364,0.763554 2.84703,0.880326 4.92587,0.880326 2.20625,0 2.60851,0.08306 5.06088,1.044989 3.0722,1.205042 3.97228,1.760504 10.74615,6.631668 2.74343,1.972823 6.31137,4.519148 7.92874,5.658503 1.61737,1.139353 4.24627,3.091894 5.842,4.338983 1.59573,1.247087 4.15861,3.172734 5.69531,4.279217 10.93714,7.875153 14.01705,10.607739 16.79093,14.89741 0.79286,1.226134 3.14785,3.9671575 6.96542,8.1072306 5.39498,5.8507377 9.35004,10.6349294 11.96881,14.4780003 0.90434,1.3271501 2.42143,3.3746441 3.37131,4.5500041 1.85199,2.291562 3.54594,4.820564 4.55275,6.79704 0.34348,0.674268 1.50797,2.311806 2.58773,3.638956 1.55496,1.911198 2.16278,2.472055 2.92285,2.696972 1.54445,0.457048 2.39822,1.237514 3.36385,3.075128 0.4984,0.94841 1.21173,2.009368 1.58521,2.357653 1.67965,1.566367 7.18358,11.367161 14.1918,25.271248 4.874,9.669831 6.45772,13.195021 7.01784,15.621 0.38908,1.685138 1.19677,3.868065 2.25552,6.096 0.86327,1.816558 1.00437,3.301264 0.4417,4.64787 -0.18879,0.451866 -0.42082,1.334008 -0.51562,1.960347 -0.41686,2.754224 -2.53334,4.653534 -5.18294,4.651147 -0.79815,0 -1.79405,-0.175946 -2.21315,-0.389382 -0.4191,-0.213462 -1.17044,-0.4619 -1.66965,-0.55212 -1.64145,-0.296672 -3.15105,-1.480185 -3.89567,-3.054147 -0.57341,-1.212114 -0.77445,-1.421918 -1.36363,-1.423137 -1.95519,-0.0041 -4.91761,-1.708785 -5.91916,-3.406343 -0.46848,-0.793979 -4.65153,-4.35577 -5.85407,-4.984623 -0.33101,-0.173076 -1.883,-1.156996 -3.44889,-2.186458 -3.30992,-2.176094 -3.2845,-2.164943 -6.48167,-2.842818 -2.59339,-0.549834 -3.9163,-1.1096 -5.81746,-2.46154 -1.7887,-1.271956 -2.43917,-1.537995 -4.91981,-2.012163 -1.2573,-0.240334 -4.28625,-1.016609 -6.731,-1.725041 -2.44475,-0.708456 -5.53085,-1.445006 -6.858,-1.636826 -2.56181,-0.370231 -6.16836,-0.919328 -8.89,-1.35349 -5.98007,-0.953923 -6.86612,-1.012952 -15.24,-1.015111 -6.69709,-0.0025 -8.80648,-0.08204 -9.906,-0.377165 -1.83144,-0.491592 -6.39526,-0.489153 -9.68624,0.0051 -1.41401,0.212369 -2.67401,0.449859 -2.80002,0.527736 -0.12601,0.07788 -1.56867,0.197205 -3.20591,0.265201 -1.64196,0.06817 -4.34236,0.401041 -6.02196,0.742265 -1.67482,0.340258 -3.62915,0.618642 -4.34294,0.618642 -1.15352,0 -7.50992,1.11727 -12.42393,2.183765 -0.9779,0.212217 -3.11409,0.88707 -4.74708,1.499641 -3.73769,1.402106 -4.50421,1.543406 -6.18546,1.140054 -1.2561,-0.30132 -1.68252,-0.257099 -6.13072,0.635965 -7.59165,1.524127 -25.28745,6.109691 -27.04965,7.009435 -2.40295,1.226896 -9.16659,3.620415 -12.52909,4.433799 -1.9558,0.473075 -4.5847,1.216838 -5.842,1.652803 -1.2573,0.435941 -3.60045,1.183386 -5.207,1.661008 -5.10276,1.517015 -7.63991,2.417293 -11.84785,4.204157 -4.21564,1.790116 -5.30271,2.022907 -6.87952,1.473226 -0.65692,-0.228981 -1.11666,-0.134874 -3.14942,0.644753 -1.30912,0.502108 -3.12316,1.246785 -4.03121,1.654887 -2.72649,1.225296 -3.79623,1.524508 -5.45061,1.524508 -0.86718,0 -1.64564,-0.06891 -1.72984,-0.153137 z"
         id="path4537"
         inkscape:connector-curvature="0" />
      <path
         style="opacity:1;fill:#7e00ad;fill-opacity:1;stroke:none;stroke-width:57.1428566;stroke-miterlimit:4;stroke-dasharray:none;stroke-opacity:0.98039216"
         d="m 1780.196,1206.9867 c -18.3428,-9.3249 -26.708,-34.4443 -21.977,-65.9929 4.6501,-31.0094 46.7134,-146.90361 71.3135,-196.48532 50.0327,-100.84153 130.9941,-179.50658 232.1925,-225.60682 24.8639,-11.32658 56.7785,-25.87941 70.9214,-32.33961 36.5136,-16.67875 93.6127,-19.87789 132.0928,-7.40088 76.5256,24.8131 181.1411,111.59186 259.8298,215.5293 14.9576,19.75695 40.5431,52.63601 56.8567,73.06458 16.3137,20.42857 30.6549,39.73495 31.8695,42.90295 1.2146,3.1681 17.321,32.195 35.792,64.5043 40.7702,71.3144 47.41,103.2048 24.6001,118.1505 -14.3014,9.3706 -15.2082,9.0874 -44.1521,-13.7915 -35.858,-28.3441 -98.1394,-58.7975 -148.3174,-72.5219 -57.6279,-15.762 -205.1224,-14.3895 -291.4285,2.7119 -95.8629,18.9951 -145.6614,32.1801 -253.8864,67.2211 -104.2868,33.7658 -136.2647,39.9381 -155.7069,30.0543 z"
         id="path4540"
         inkscape:connector-curvature="0"
         transform="matrix(0.26458333,0,0,0.26458333,-365.11338,-228.12287)" />
      <path
         style="opacity:1;fill:#ff4890;fill-opacity:1;stroke:none;stroke-width:57.1428566;stroke-miterlimit:4;stroke-dasharray:none;stroke-opacity:0.98039216"
         d="m 2540.2236,2234.8979 c -2.4892,-3.9286 -3.8073,-44.6404 -2.9292,-90.4707 l 1.5965,-83.3279 -23.0057,-59.5604 c -55.0373,-142.4882 -116.606,-220.0442 -354.2587,-446.2471 -70.7058,-67.2993 -75.8487,-73.6111 -72.1686,-88.5714 12.1412,-49.3563 38.7862,-61.0324 181.0926,-79.3566 124.3199,-16.0081 172.4027,-13.6074 250.6673,12.515 107.6306,35.9241 227.8144,126.1251 257.9397,193.5905 10.6183,23.7797 12.6667,38.1549 12.2141,85.7143 -0.8417,88.4306 -17.514,162.331 -63.5061,281.4914 -39.8138,103.1528 -48.8445,121.8804 -96.9862,201.1275 -39.8007,65.5166 -76.6381,95.2185 -90.6557,73.0954 z"
         id="path4542"
         inkscape:connector-curvature="0"
         transform="matrix(0.26458333,0,0,0.26458333,-365.11338,-228.12287)" />
      <path
         style="opacity:1;fill:#5e48ff;fill-opacity:1;stroke:none;stroke-width:57.1428566;stroke-miterlimit:4;stroke-dasharray:none;stroke-opacity:0.98039216"
         d="m 1633.8893,2676.0064 c -29.8576,-7.3114 -55.5286,-21.3513 -55.5286,-30.3696 0,-11.5664 15.8938,-22.8796 64.7088,-46.0595 74.8565,-35.5459 146.9214,-111.8264 202.8153,-214.6794 42.4962,-78.1994 97.736,-252.3291 120.5486,-380 22.2957,-124.7775 50.5603,-167.2038 95.8047,-143.807 20.806,10.7592 96.0295,89.1478 130.558,136.0514 87.1438,118.3765 118.215,224.56 105.8232,361.642 -12.5804,139.1678 -38.7348,185.9702 -127.417,228.0075 -53.8285,25.516 -117.0016,47.8987 -178.5559,63.2637 -92.558,23.1041 -307.0282,38.6178 -358.7571,25.9509 z"
         id="path4544"
         inkscape:connector-curvature="0"
         transform="matrix(0.26458333,0,0,0.26458333,-365.11338,-228.12287)" />
      <path
         style="opacity:1;fill:#48ff4e;fill-opacity:1;stroke:none;stroke-width:57.1428566;stroke-miterlimit:4;stroke-dasharray:none;stroke-opacity:0.98039216"
         d="M 1160.0618,2528.1505 C 1070.9745,2499.6658 974.89998,2416.1979 859.63133,2267.1417 763.45708,2142.7769 717.83497,2047.2916 740.0738,2016.9124 c 10.93755,-14.9411 27.75139,-9.6107 69.71545,22.1015 118.75914,89.7463 314.06015,95.5543 585.32815,17.4071 36.3553,-10.4732 86.0437,-26.9726 110.4189,-36.6652 53.2256,-21.1647 97.57,-27.4641 126.3863,-17.9539 38.6271,12.7481 40.7503,34.4614 12.0332,123.061 -50.1188,154.6297 -122.4695,263.7997 -214.2096,323.2209 -63.9849,41.4439 -190.5855,91.6945 -228.5284,90.7081 -4.7143,-0.1226 -23.2345,-4.9112 -41.156,-10.6414 z"
         id="path4546"
         inkscape:connector-curvature="0"
         transform="matrix(0.26458333,0,0,0.26458333,-365.11338,-228.12287)" />
      <path
         style="opacity:1;fill:#ff5f0f;fill-opacity:1;stroke:none;stroke-width:57.1428566;stroke-miterlimit:4;stroke-dasharray:none;stroke-opacity:0.98039216"
         d="M 955.50354,1822.1269 C 846.98602,1800.4736 703.1626,1712.4914 652.17132,1636.5673 c -43.63601,-64.9725 -31.86423,-202.2085 31.92075,-372.1339 70.60781,-188.1017 148.39915,-310.0209 188.09217,-294.78926 7.43122,2.85163 8.84205,15.7964 8.64611,79.33076 -0.28462,92.3028 10.96626,142.6396 49.27546,220.4594 44.36869,90.1287 146.58789,214.4181 258.29229,314.0602 69.2623,61.7832 122.1133,114.1865 135.0046,133.8612 8.9431,13.6488 9.0644,16.9098 1.3188,35.4475 -9.1385,21.8717 -34.0114,40.2798 -66.4251,49.1604 -32.0026,8.7681 -197.2184,28.7005 -233.0114,28.1116 -17.9512,-0.2953 -49.35289,-3.872 -69.78146,-7.9483 z"
         id="path4548"
         inkscape:connector-curvature="0"
         transform="matrix(0.26458333,0,0,0.26458333,-365.11338,-228.12287)" />
      <path
         style="opacity:1;fill:#ff0f0f;fill-opacity:1;stroke:none;stroke-width:57.1428566;stroke-miterlimit:4;stroke-dasharray:none;stroke-opacity:0.98039216"
         d="m 1358.4224,1343.8076 c -33.558,-17.6859 -86.2924,-73.3897 -136.9146,-144.624 -80.0121,-112.5909 -101.5939,-176.2213 -101.7521,-299.99998 -0.1626,-127.1325 19.9617,-197.20195 69.0836,-240.53742 75.214,-66.35402 264.0825,-120.26025 469.5214,-134.00929 88.7783,-5.94151 182.8571,11.39558 182.8571,33.69738 0,12.03409 -22.6972,28.64734 -71.1252,52.06018 -53.1615,25.70131 -122.8065,90.75087 -162.3593,151.64629 -58.2066,89.61476 -112.7176,237.60613 -146.2833,397.14284 -28.0282,133.2178 -39.8672,170.9217 -58.1962,185.3393 -18.047,14.1958 -16.4914,14.2206 -44.8314,-0.7153 z"
         id="path4550"
         inkscape:connector-curvature="0"
         transform="matrix(0.26458333,0,0,0.26458333,-365.11338,-228.12287)" />
    </g>
  </g>
</svg>
