<svg xmlns="http://www.w3.org/2000/svg" width="164.715" height="109.811" viewBox="0 0 164.715 109.811">
  <path id="Subtraction_1" data-name="Subtraction 1" d="M43.142,113.81H-39.331a13.579,13.579,0,0,1-9.666-4,13.579,13.579,0,0,1-4-9.666V17.669A13.579,13.579,0,0,1-49,8a13.579,13.579,0,0,1,9.666-4H43.142A13.669,13.669,0,0,1,56.81,17.669v82.472A13.669,13.669,0,0,1,43.142,113.81ZM1.973,31.905a27.386,27.386,0,0,0,0,54.772,27.386,27.386,0,0,0,0-54.772Zm100.552,72.739h0A9.179,9.179,0,0,1,97.3,103L65.961,81.41V36.4L97.3,14.781a9.208,9.208,0,0,1,5.22-1.639,9.444,9.444,0,0,1,6.382,2.521,8.8,8.8,0,0,1,2.81,6.5V95.623a8.8,8.8,0,0,1-2.813,6.5A9.443,9.443,0,0,1,102.525,104.644Z" transform="translate(53 -4)"/>
</svg>
